<mxfile host="app.diagrams.net" agent="Mozilla/5.0 (Windows NT 10.0; Win64; x64) AppleWebKit/537.36 (KHTML, like Gecko) Chrome/140.0.0.0 Safari/537.36 Edg/140.0.0.0" version="28.2.5">
  <diagram name="第 1 页" id="68sw6kobke96S3FRUMtQ">
    <mxGraphModel dx="1340" dy="866" grid="1" gridSize="10" guides="1" tooltips="1" connect="1" arrows="1" fold="1" page="1" pageScale="1" pageWidth="827" pageHeight="1169" math="0" shadow="0">
      <root>
        <mxCell id="0" />
        <mxCell id="1" parent="0" />
        <object label="Student" Student="1" studentId="String" id="zHSTRUNmxCtwNXvZRE6J-1">
          <mxCell style="rounded=0;whiteSpace=wrap;html=1;" vertex="1" parent="1">
            <mxGeometry x="80" y="90" width="120" height="60" as="geometry" />
          </mxCell>
        </object>
        <mxCell id="zHSTRUNmxCtwNXvZRE6J-2" value="" style="swimlane;startSize=0;" vertex="1" parent="1">
          <mxGeometry x="80" y="150" width="166" height="100" as="geometry" />
        </mxCell>
        <mxCell id="zHSTRUNmxCtwNXvZRE6J-11" value="&lt;div style=&quot;text-align: left;&quot;&gt;&lt;span style=&quot;color: light-dark(rgb(0, 0, 0), rgb(255, 255, 255)); text-wrap-mode: wrap; background-color: rgba(0, 0, 0, 0.06);&quot;&gt;&lt;font face=&quot;Menlo, Monaco, Consolas, Courier New, monospace&quot;&gt;name：String&lt;/font&gt;&lt;/span&gt;&lt;/div&gt;" style="text;html=1;align=center;verticalAlign=middle;resizable=0;points=[];autosize=1;strokeColor=none;fillColor=none;fontSize=13;" vertex="1" parent="zHSTRUNmxCtwNXvZRE6J-2">
          <mxGeometry x="-19" y="30" width="110" height="30" as="geometry" />
        </mxCell>
        <mxCell id="zHSTRUNmxCtwNXvZRE6J-12" value="&lt;span style=&quot;font-family: Menlo, Monaco, Consolas, &amp;quot;Courier New&amp;quot;, monospace; font-size: 14.4px; text-align: left; text-wrap-mode: wrap; background-color: rgba(0, 0, 0, 0.06);&quot;&gt;borrowedBooks: List&amp;lt;Book&amp;gt;&lt;/span&gt;" style="text;html=1;align=center;verticalAlign=middle;resizable=0;points=[];autosize=1;strokeColor=none;fillColor=none;" vertex="1" parent="zHSTRUNmxCtwNXvZRE6J-2">
          <mxGeometry x="-54" y="65" width="220" height="30" as="geometry" />
        </mxCell>
        <mxCell id="zHSTRUNmxCtwNXvZRE6J-13" value="&lt;ul style=&quot;outline: none; -webkit-font-smoothing: antialiased; box-sizing: border-box; -webkit-tap-highlight-color: rgba(0, 0, 0, 0); border: 0px solid; margin-right: 0px; margin-left: 0px; padding-top: 0px; padding-right: 0px; padding-bottom: 0px; list-style: none; overflow-anchor: auto; color: rgba(0, 0, 0, 0.85); font-family: Inter, -apple-system, BlinkMacSystemFont, &amp;quot;Segoe UI&amp;quot;, &amp;quot;PingFang SC&amp;quot;, &amp;quot;Hiragino Sans GB&amp;quot;, &amp;quot;Microsoft YaHei&amp;quot;, &amp;quot;Helvetica Neue&amp;quot;, Helvetica, Arial, sans-serif; font-size: 16px; text-align: left; background-color: rgb(255, 255, 255); margin-top: 4px !important; margin-bottom: 4px !important; padding-left: 20px !important;&quot; class=&quot;auto-hide-last-sibling-br&quot;&gt;&lt;li style=&quot;outline: none; -webkit-font-smoothing: antialiased; box-sizing: border-box; -webkit-tap-highlight-color: rgba(0, 0, 0, 0); border: 0px solid; margin: 4px 0px 8px; padding: 0px 0px 0px 4px; line-height: 24px; color: rgb(0, 0, 0); list-style-type: circle; overflow-anchor: auto;&quot;&gt;&lt;code style=&quot;outline: none; -webkit-font-smoothing: antialiased; box-sizing: border-box; -webkit-tap-highlight-color: rgba(0, 0, 0, 0); border: 0px none rgb(0, 0, 0); margin: 0px; padding: 0px 4px; font-family: Menlo, Monaco, Consolas, &amp;quot;Courier New&amp;quot;, monospace; font-feature-settings: normal; font-size: 14.4px; font-variation-settings: normal; background: none 0% 0% / auto repeat scroll padding-box border-box rgba(0, 0, 0, 0.06); border-radius: 4px; overflow-anchor: auto;&quot;&gt;&amp;nbsp;borrowBook(book: Book): boolean&lt;/code&gt;&lt;/li&gt;&lt;li style=&quot;outline: none; -webkit-font-smoothing: antialiased; box-sizing: border-box; -webkit-tap-highlight-color: rgba(0, 0, 0, 0); border: 0px solid; margin: 4px 0px 8px; padding: 0px 0px 0px 4px; line-height: 24px; color: rgb(0, 0, 0); list-style-type: circle; overflow-anchor: auto;&quot;&gt;&lt;code style=&quot;outline: none; -webkit-font-smoothing: antialiased; box-sizing: border-box; -webkit-tap-highlight-color: rgba(0, 0, 0, 0); border: 0px none rgb(0, 0, 0); margin: 0px; padding: 0px 4px; font-family: Menlo, Monaco, Consolas, &amp;quot;Courier New&amp;quot;, monospace; font-feature-settings: normal; font-size: 14.4px; font-variation-settings: normal; background: none 0% 0% / auto repeat scroll padding-box border-box rgba(0, 0, 0, 0.06); border-radius: 4px; overflow-anchor: auto;&quot;&gt;returnBook(book: Book): boolean&lt;/code&gt;&lt;/li&gt;&lt;li style=&quot;outline: none; -webkit-font-smoothing: antialiased; box-sizing: border-box; -webkit-tap-highlight-color: rgba(0, 0, 0, 0); border: 0px solid; margin: 4px 0px 8px; padding: 0px 0px 0px 4px; line-height: 24px; color: rgb(0, 0, 0); list-style-type: circle; overflow-anchor: auto;&quot;&gt;&lt;code style=&quot;outline: none; -webkit-font-smoothing: antialiased; box-sizing: border-box; -webkit-tap-highlight-color: rgba(0, 0, 0, 0); border: 0px none rgb(0, 0, 0); margin: 0px; padding: 0px 4px; font-family: Menlo, Monaco, Consolas, &amp;quot;Courier New&amp;quot;, monospace; font-feature-settings: normal; font-size: 14.4px; font-variation-settings: normal; background: none 0% 0% / auto repeat scroll padding-box border-box rgba(0, 0, 0, 0.06); border-radius: 4px; overflow-anchor: auto;&quot;&gt;queryBorrowedBooks(): List&amp;lt;Book&amp;gt;&lt;/code&gt;&lt;/li&gt;&lt;/ul&gt;" style="rounded=0;whiteSpace=wrap;html=1;" vertex="1" parent="1">
          <mxGeometry x="80" y="260" width="326" height="80" as="geometry" />
        </mxCell>
        <mxCell id="zHSTRUNmxCtwNXvZRE6J-9" value="studentID: String&lt;div&gt;&lt;br&gt;&lt;/div&gt;" style="text;html=1;align=center;verticalAlign=middle;resizable=0;points=[];autosize=1;strokeColor=none;fillColor=none;fontSize=14;" vertex="1" parent="1">
          <mxGeometry x="80" y="150" width="130" height="50" as="geometry" />
        </mxCell>
        <mxCell id="zHSTRUNmxCtwNXvZRE6J-14" value="Book" style="rounded=0;whiteSpace=wrap;html=1;" vertex="1" parent="1">
          <mxGeometry x="440" y="20" width="120" height="60" as="geometry" />
        </mxCell>
        <mxCell id="zHSTRUNmxCtwNXvZRE6J-15" value="&lt;ul style=&quot;outline: none; -webkit-font-smoothing: antialiased; box-sizing: border-box; -webkit-tap-highlight-color: rgba(0, 0, 0, 0); border: 0px solid; margin-right: 0px; margin-left: 0px; padding-top: 0px; padding-right: 0px; padding-bottom: 0px; list-style: none; overflow-anchor: auto; color: rgba(0, 0, 0, 0.85); font-family: Inter, -apple-system, BlinkMacSystemFont, &amp;quot;Segoe UI&amp;quot;, &amp;quot;PingFang SC&amp;quot;, &amp;quot;Hiragino Sans GB&amp;quot;, &amp;quot;Microsoft YaHei&amp;quot;, &amp;quot;Helvetica Neue&amp;quot;, Helvetica, Arial, sans-serif; font-size: 16px; text-align: left; background-color: rgb(255, 255, 255); margin-top: 4px !important; margin-bottom: 4px !important; padding-left: 20px !important;&quot; class=&quot;auto-hide-last-sibling-br&quot;&gt;&lt;li style=&quot;outline: none; -webkit-font-smoothing: antialiased; box-sizing: border-box; -webkit-tap-highlight-color: rgba(0, 0, 0, 0); border: 0px solid; margin: 4px 0px 8px; padding: 0px 0px 0px 4px; line-height: 24px; color: rgb(0, 0, 0); list-style-type: circle; overflow-anchor: auto;&quot;&gt;&lt;code style=&quot;outline: none; -webkit-font-smoothing: antialiased; box-sizing: border-box; -webkit-tap-highlight-color: rgba(0, 0, 0, 0); border: 0px none rgb(0, 0, 0); margin: 0px; padding: 0px 4px; font-family: Menlo, Monaco, Consolas, &amp;quot;Courier New&amp;quot;, monospace; font-feature-settings: normal; font-size: 14.4px; font-variation-settings: normal; background: none 0% 0% / auto repeat scroll padding-box border-box rgba(0, 0, 0, 0.06); border-radius: 4px; overflow-anchor: auto;&quot;&gt;bookId: String&lt;/code&gt;&lt;/li&gt;&lt;li style=&quot;outline: none; -webkit-font-smoothing: antialiased; box-sizing: border-box; -webkit-tap-highlight-color: rgba(0, 0, 0, 0); border: 0px solid; margin: 4px 0px 8px; padding: 0px 0px 0px 4px; line-height: 24px; color: rgb(0, 0, 0); list-style-type: circle; overflow-anchor: auto;&quot;&gt;&lt;code style=&quot;outline: none; -webkit-font-smoothing: antialiased; box-sizing: border-box; -webkit-tap-highlight-color: rgba(0, 0, 0, 0); border: 0px none rgb(0, 0, 0); margin: 0px; padding: 0px 4px; font-family: Menlo, Monaco, Consolas, &amp;quot;Courier New&amp;quot;, monospace; font-feature-settings: normal; font-size: 14.4px; font-variation-settings: normal; background: none 0% 0% / auto repeat scroll padding-box border-box rgba(0, 0, 0, 0.06); border-radius: 4px; overflow-anchor: auto;&quot;&gt;title: String&lt;/code&gt;&lt;/li&gt;&lt;li style=&quot;outline: none; -webkit-font-smoothing: antialiased; box-sizing: border-box; -webkit-tap-highlight-color: rgba(0, 0, 0, 0); border: 0px solid; margin: 4px 0px 8px; padding: 0px 0px 0px 4px; line-height: 24px; color: rgb(0, 0, 0); list-style-type: circle; overflow-anchor: auto;&quot;&gt;author: String&lt;/li&gt;&lt;li style=&quot;outline: none; -webkit-font-smoothing: antialiased; box-sizing: border-box; -webkit-tap-highlight-color: rgba(0, 0, 0, 0); border: 0px solid; margin: 4px 0px 8px; padding: 0px 0px 0px 4px; line-height: 24px; color: rgb(0, 0, 0); list-style-type: circle; overflow-anchor: auto;&quot;&gt;&lt;code style=&quot;outline: none; -webkit-font-smoothing: antialiased; box-sizing: border-box; -webkit-tap-highlight-color: rgba(0, 0, 0, 0); border: 0px none rgb(0, 0, 0); margin: 0px; padding: 0px 4px; font-family: Menlo, Monaco, Consolas, &amp;quot;Courier New&amp;quot;, monospace; font-feature-settings: normal; font-size: 14.4px; font-variation-settings: normal; background: none 0% 0% / auto repeat scroll padding-box border-box rgba(0, 0, 0, 0.06); border-radius: 4px; overflow-anchor: auto;&quot;&gt;publisher: String&lt;/code&gt;&lt;/li&gt;&lt;li style=&quot;outline: none; -webkit-font-smoothing: antialiased; box-sizing: border-box; -webkit-tap-highlight-color: rgba(0, 0, 0, 0); border: 0px solid; margin: 4px 0px 8px; padding: 0px 0px 0px 4px; line-height: 24px; color: rgb(0, 0, 0); list-style-type: circle; overflow-anchor: auto;&quot;&gt;isBorrowed: boolean&lt;/li&gt;&lt;/ul&gt;" style="rounded=0;whiteSpace=wrap;html=1;" vertex="1" parent="1">
          <mxGeometry x="440" y="110" width="250" height="110" as="geometry" />
        </mxCell>
        <mxCell id="zHSTRUNmxCtwNXvZRE6J-17" value="&lt;div style=&quot;text-align: left;&quot;&gt;&lt;span style=&quot;font-family: Menlo, Monaco, Consolas, &amp;quot;Courier New&amp;quot;, monospace; font-size: 14.4px; background-color: rgba(0, 0, 0, 0.06);&quot;&gt;getBookInfo(): String&lt;/span&gt;&lt;font face=&quot;Menlo, Monaco, Consolas, Courier New, monospace&quot;&gt;&lt;span style=&quot;font-size: 14.4px; background-color: rgba(0, 0, 0, 0.06);&quot;&gt;&lt;/span&gt;&lt;/font&gt;&lt;/div&gt;&lt;ol style=&quot;outline: none; -webkit-font-smoothing: antialiased; box-sizing: border-box; -webkit-tap-highlight-color: rgba(0, 0, 0, 0); border: 0px solid; margin-right: 0px; margin-left: 0px; padding: 0px 0px 0px 20px; list-style: none; overflow-anchor: auto; text-align: start; background-color: rgb(255, 255, 255); margin-top: 8px !important; margin-bottom: 8px !important;&quot; class=&quot;auto-hide-last-sibling-br&quot;&gt;&lt;ul style=&quot;outline: none; -webkit-font-smoothing: antialiased; box-sizing: border-box; -webkit-tap-highlight-color: rgba(0, 0, 0, 0); border: 0px solid; margin-right: 0px; margin-left: 0px; padding-top: 0px; padding-right: 0px; padding-bottom: 0px; list-style: none; overflow-anchor: auto; margin-top: 4px !important; margin-bottom: 4px !important; padding-left: 20px !important;&quot; class=&quot;auto-hide-last-sibling-br&quot;&gt;&lt;ul style=&quot;font-family: Inter, -apple-system, BlinkMacSystemFont, &amp;quot;Segoe UI&amp;quot;, &amp;quot;PingFang SC&amp;quot;, &amp;quot;Hiragino Sans GB&amp;quot;, &amp;quot;Microsoft YaHei&amp;quot;, &amp;quot;Helvetica Neue&amp;quot;, Helvetica, Arial, sans-serif; font-size: 16px; background-color: light-dark(rgb(255, 255, 255), rgb(18, 18, 18)); outline: none; -webkit-font-smoothing: antialiased; box-sizing: border-box; -webkit-tap-highlight-color: rgba(0, 0, 0, 0); border: 0px solid; margin-right: 0px; margin-left: 0px; padding-top: 0px; padding-right: 0px; padding-bottom: 0px; list-style: none; overflow-anchor: auto; margin-top: 4px !important; margin-bottom: 4px !important; padding-left: 20px !important;&quot; class=&quot;auto-hide-last-sibling-br&quot;&gt;&lt;li&gt;&lt;/li&gt;&lt;/ul&gt;&lt;/ul&gt;&lt;/ol&gt;" style="rounded=0;whiteSpace=wrap;html=1;" vertex="1" parent="1">
          <mxGeometry x="440" y="240" width="280" height="100" as="geometry" />
        </mxCell>
        <mxCell id="zHSTRUNmxCtwNXvZRE6J-18" value="Librarian" style="rounded=0;whiteSpace=wrap;html=1;" vertex="1" parent="1">
          <mxGeometry x="230" y="480" width="120" height="60" as="geometry" />
        </mxCell>
        <mxCell id="zHSTRUNmxCtwNXvZRE6J-19" value="&lt;ul style=&quot;outline: none; -webkit-font-smoothing: antialiased; box-sizing: border-box; -webkit-tap-highlight-color: rgba(0, 0, 0, 0); border: 0px solid; margin-right: 0px; margin-left: 0px; padding-top: 0px; padding-right: 0px; padding-bottom: 0px; list-style: none; overflow-anchor: auto; color: rgba(0, 0, 0, 0.85); font-family: Inter, -apple-system, BlinkMacSystemFont, &amp;quot;Segoe UI&amp;quot;, &amp;quot;PingFang SC&amp;quot;, &amp;quot;Hiragino Sans GB&amp;quot;, &amp;quot;Microsoft YaHei&amp;quot;, &amp;quot;Helvetica Neue&amp;quot;, Helvetica, Arial, sans-serif; font-size: 16px; text-align: left; background-color: rgb(255, 255, 255); margin-top: 4px !important; margin-bottom: 4px !important; padding-left: 20px !important;&quot; class=&quot;auto-hide-last-sibling-br&quot;&gt;&lt;li style=&quot;outline: none; -webkit-font-smoothing: antialiased; box-sizing: border-box; -webkit-tap-highlight-color: rgba(0, 0, 0, 0); border: 0px solid; margin: 4px 0px 8px; padding: 0px 0px 0px 4px; line-height: 24px; color: rgb(0, 0, 0); list-style-type: circle; overflow-anchor: auto;&quot;&gt;&lt;code style=&quot;outline: none; -webkit-font-smoothing: antialiased; box-sizing: border-box; -webkit-tap-highlight-color: rgba(0, 0, 0, 0); border: 0px none rgb(0, 0, 0); margin: 0px; padding: 0px 4px; font-family: Menlo, Monaco, Consolas, &amp;quot;Courier New&amp;quot;, monospace; font-feature-settings: normal; font-size: 14.4px; font-variation-settings: normal; background: none 0% 0% / auto repeat scroll padding-box border-box rgba(0, 0, 0, 0.06); border-radius: 4px; overflow-anchor: auto;&quot;&gt;+ librarianId: String&lt;/code&gt;&lt;/li&gt;&lt;li style=&quot;outline: none; -webkit-font-smoothing: antialiased; box-sizing: border-box; -webkit-tap-highlight-color: rgba(0, 0, 0, 0); border: 0px solid; margin: 4px 0px 8px; padding: 0px 0px 0px 4px; line-height: 24px; color: rgb(0, 0, 0); list-style-type: circle; overflow-anchor: auto;&quot;&gt;&lt;code style=&quot;outline: none; -webkit-font-smoothing: antialiased; box-sizing: border-box; -webkit-tap-highlight-color: rgba(0, 0, 0, 0); border: 0px none rgb(0, 0, 0); margin: 0px; padding: 0px 4px; font-family: Menlo, Monaco, Consolas, &amp;quot;Courier New&amp;quot;, monospace; font-feature-settings: normal; font-size: 14.4px; font-variation-settings: normal; background: none 0% 0% / auto repeat scroll padding-box border-box rgba(0, 0, 0, 0.06); border-radius: 4px; overflow-anchor: auto;&quot;&gt;+ name: String&lt;/code&gt;&lt;/li&gt;&lt;/ul&gt;" style="rounded=0;whiteSpace=wrap;html=1;" vertex="1" parent="1">
          <mxGeometry x="230" y="540" width="280" height="100" as="geometry" />
        </mxCell>
        <mxCell id="zHSTRUNmxCtwNXvZRE6J-20" value="&lt;ul style=&quot;outline: none; -webkit-font-smoothing: antialiased; box-sizing: border-box; -webkit-tap-highlight-color: rgba(0, 0, 0, 0); border: 0px solid; margin-right: 0px; margin-left: 0px; padding-top: 0px; padding-right: 0px; padding-bottom: 0px; list-style: none; overflow-anchor: auto; color: rgba(0, 0, 0, 0.85); font-family: Inter, -apple-system, BlinkMacSystemFont, &amp;quot;Segoe UI&amp;quot;, &amp;quot;PingFang SC&amp;quot;, &amp;quot;Hiragino Sans GB&amp;quot;, &amp;quot;Microsoft YaHei&amp;quot;, &amp;quot;Helvetica Neue&amp;quot;, Helvetica, Arial, sans-serif; font-size: 16px; text-align: left; background-color: rgb(255, 255, 255); margin-top: 4px !important; margin-bottom: 4px !important; padding-left: 20px !important;&quot; class=&quot;auto-hide-last-sibling-br&quot;&gt;&lt;li style=&quot;outline: none; -webkit-font-smoothing: antialiased; box-sizing: border-box; -webkit-tap-highlight-color: rgba(0, 0, 0, 0); border: 0px solid; margin: 4px 0px 8px; padding: 0px 0px 0px 4px; line-height: 24px; color: rgb(0, 0, 0); list-style-type: circle; overflow-anchor: auto;&quot;&gt;&lt;code style=&quot;outline: none; -webkit-font-smoothing: antialiased; box-sizing: border-box; -webkit-tap-highlight-color: rgba(0, 0, 0, 0); border: 0px none rgb(0, 0, 0); margin: 0px; padding: 0px 4px; font-family: Menlo, Monaco, Consolas, &amp;quot;Courier New&amp;quot;, monospace; font-feature-settings: normal; font-size: 14.4px; font-variation-settings: normal; background: none 0% 0% / auto repeat scroll padding-box border-box rgba(0, 0, 0, 0.06); border-radius: 4px; overflow-anchor: auto;&quot;&gt;+ handleBorrow(student: Student, book: Book): boolean&lt;/code&gt;&lt;/li&gt;&lt;li style=&quot;outline: none; -webkit-font-smoothing: antialiased; box-sizing: border-box; -webkit-tap-highlight-color: rgba(0, 0, 0, 0); border: 0px solid; margin: 4px 0px 8px; padding: 0px 0px 0px 4px; line-height: 24px; color: rgb(0, 0, 0); list-style-type: circle; overflow-anchor: auto;&quot;&gt;&lt;code style=&quot;outline: none; -webkit-font-smoothing: antialiased; box-sizing: border-box; -webkit-tap-highlight-color: rgba(0, 0, 0, 0); border: 0px none rgb(0, 0, 0); margin: 0px; padding: 0px 4px; font-family: Menlo, Monaco, Consolas, &amp;quot;Courier New&amp;quot;, monospace; font-feature-settings: normal; font-size: 14.4px; font-variation-settings: normal; background: none 0% 0% / auto repeat scroll padding-box border-box rgba(0, 0, 0, 0.06); border-radius: 4px; overflow-anchor: auto;&quot;&gt;+ handleReturn(student: Student, book: Book): boolean&lt;/code&gt;&lt;/li&gt;&lt;li style=&quot;outline: none; -webkit-font-smoothing: antialiased; box-sizing: border-box; -webkit-tap-highlight-color: rgba(0, 0, 0, 0); border: 0px solid; margin: 4px 0px 8px; padding: 0px 0px 0px 4px; line-height: 24px; color: rgb(0, 0, 0); list-style-type: circle; overflow-anchor: auto;&quot;&gt;&lt;code style=&quot;outline: none; -webkit-font-smoothing: antialiased; box-sizing: border-box; -webkit-tap-highlight-color: rgba(0, 0, 0, 0); border: 0px none rgb(0, 0, 0); margin: 0px; padding: 0px 4px; font-family: Menlo, Monaco, Consolas, &amp;quot;Courier New&amp;quot;, monospace; font-feature-settings: normal; font-size: 14.4px; font-variation-settings: normal; background: none 0% 0% / auto repeat scroll padding-box border-box rgba(0, 0, 0, 0.06); border-radius: 4px; overflow-anchor: auto;&quot;&gt;+ searchBook(condition: String): List&amp;lt;Book&amp;gt;&lt;/code&gt;&lt;/li&gt;&lt;/ul&gt;" style="rounded=0;whiteSpace=wrap;html=1;" vertex="1" parent="1">
          <mxGeometry x="230" y="640" width="410" height="230" as="geometry" />
        </mxCell>
        <mxCell id="zHSTRUNmxCtwNXvZRE6J-21" value="" style="shape=flexArrow;endArrow=classic;html=1;rounded=0;entryX=0;entryY=0.5;entryDx=0;entryDy=0;exitX=1;exitY=0.5;exitDx=0;exitDy=0;" edge="1" parent="1" source="zHSTRUNmxCtwNXvZRE6J-1" target="zHSTRUNmxCtwNXvZRE6J-14">
          <mxGeometry width="50" height="50" relative="1" as="geometry">
            <mxPoint x="210" y="110" as="sourcePoint" />
            <mxPoint x="300" y="110" as="targetPoint" />
          </mxGeometry>
        </mxCell>
        <mxCell id="zHSTRUNmxCtwNXvZRE6J-22" value="" style="shape=flexArrow;endArrow=classic;html=1;rounded=0;entryX=0.344;entryY=1.063;entryDx=0;entryDy=0;entryPerimeter=0;exitX=0.25;exitY=0;exitDx=0;exitDy=0;" edge="1" parent="1" source="zHSTRUNmxCtwNXvZRE6J-18" target="zHSTRUNmxCtwNXvZRE6J-13">
          <mxGeometry width="50" height="50" relative="1" as="geometry">
            <mxPoint x="265" y="480" as="sourcePoint" />
            <mxPoint x="315" y="430" as="targetPoint" />
          </mxGeometry>
        </mxCell>
        <mxCell id="zHSTRUNmxCtwNXvZRE6J-23" value="" style="shape=flexArrow;endArrow=classic;html=1;rounded=0;exitX=0.663;exitY=-0.058;exitDx=0;exitDy=0;exitPerimeter=0;entryX=0.5;entryY=1;entryDx=0;entryDy=0;" edge="1" parent="1" source="zHSTRUNmxCtwNXvZRE6J-18" target="zHSTRUNmxCtwNXvZRE6J-17">
          <mxGeometry width="50" height="50" relative="1" as="geometry">
            <mxPoint x="380" y="410" as="sourcePoint" />
            <mxPoint x="430" y="360" as="targetPoint" />
          </mxGeometry>
        </mxCell>
      </root>
    </mxGraphModel>
  </diagram>
</mxfile>
